<?xml version="1.0" encoding="utf-8"?>
<svg version="1.1" id="order_tracking" xmlns="http://www.w3.org/2000/svg" x="0px" y="0px" width="60px" height="60px" viewBox="0 0 60 60" style="enable-background:new 0 0 60 60;" xml:space="preserve">
<style type="text/css">
	.st0{fill:#FFFFFF;}
</style>
<g>
	<g>
		<path class="st0" d="M8.94,46.81H3.79v-1.1h2.1c-0.1-0.38-0.24-0.72-0.41-1.02l1.25-0.33c0.23,0.51,0.38,0.96,0.47,1.35h1.74
			V46.81z M8.5,48.78H4.27v-1.08H8.5V48.78z M8.5,50.74h-4.2v-1.1h4.2V50.74z M8.51,55.98H7.33v-0.56H5.5v0.88H4.32v-4.66h4.19
			V55.98z M7.33,54.33v-1.55H5.5v1.55H7.33z M15.6,45.98h-2.06v9.14c0,0.35-0.11,0.63-0.34,0.84c-0.23,0.21-0.51,0.31-0.86,0.31
			c-0.58,0-1.22-0.01-1.92-0.03l-0.4-1.19c0.64,0.05,1.24,0.07,1.81,0.07c0.31,0,0.47-0.09,0.47-0.27v-8.89H9.36v-1.17h6.24V45.98z"
			/>
		<path class="st0" d="M29.25,54.56h-5.32v1.77h-1.21v-1.77h-5.3v-1.03h5.3v-0.74h-4.06v-4.51h9.36v4.51h-4.09v0.74h5.32V54.56z
			 M22.79,47.57h-4.61v-2.85h4.61V47.57z M21.6,46.57v-0.83h-2.23v0.83H21.6z M22.72,50.07v-0.8h-2.87v0.8H22.72z M22.72,51.8V51
			h-2.87v0.8H22.72z M28.42,47.57h-4.55v-2.85h4.55V47.57z M26.83,50.07v-0.8h-2.9v0.8H26.83z M26.83,51.8V51h-2.9v0.8H26.83z
			 M27.24,46.57v-0.83h-2.18v0.83H27.24z"/>
		<path class="st0" d="M42.96,48.98l-0.67,1.05c-0.29-0.19-0.57-0.35-0.86-0.5v4.53h-9.06v-4.36c-0.38,0.19-0.67,0.32-0.88,0.39
			l-0.62-1.07c1.88-0.71,3.38-1.49,4.49-2.33h-4.37v-1.13h5.3v-1.08h1.21v1.08h5.3v1.13h-5.3C39.49,47.32,41.32,48.08,42.96,48.98z
			 M42.81,56.05h-11.8v-1.09h11.8V56.05z M36.29,49.34v-1.93c-0.93,0.73-1.97,1.38-3.11,1.93H36.29z M40.2,51.19v-0.74h-6.59v0.74
			H40.2z M40.2,52.98v-0.79h-6.59v0.79H40.2z M41.05,49.34c-1.11-0.58-2.3-1.09-3.55-1.51v1.51H41.05z"/>
		<path class="st0" d="M49.23,46.8h-4.69v-1.09h1.77c-0.11-0.36-0.24-0.7-0.39-1.02l1.19-0.33c0.21,0.49,0.37,0.94,0.49,1.35h1.63
			V46.8z M48.75,48.82h-3.89v-1.09h3.89V48.82z M48.75,50.78h-3.89v-1.08h3.89V50.78z M48.75,56.12h-1.21v-0.61h-1.48v0.82h-1.2
			v-4.62h3.89V56.12z M47.54,54.42v-1.62h-1.48v1.62H47.54z M56.21,46.04c0,2.34-0.03,4.37-0.09,6.11
			c-0.06,1.74-0.15,2.79-0.27,3.15s-0.32,0.63-0.6,0.79c-0.29,0.17-0.79,0.25-1.52,0.25c-0.32,0-0.62-0.01-0.9-0.03l-0.43-1.15
			c0.5,0.03,1.15,0.04,1.93,0.04c0.08,0,0.17-0.04,0.27-0.12c0.1-0.08,0.15-0.18,0.17-0.32l0.14-2.42c0.08-1.47,0.12-3.2,0.12-5.18
			H51.3c-0.19,0.34-0.44,0.73-0.76,1.17h3.4v5.82h-3.97v-5.11c-0.14,0.16-0.27,0.29-0.39,0.39l-0.66-1.06
			c0.99-1.01,1.81-2.36,2.46-4.05l1.13,0.36c-0.16,0.45-0.36,0.9-0.6,1.35H56.21z M52.77,50.67v-1.23H51.2v1.23H52.77z M52.77,53.04
			v-1.31H51.2v1.31H52.77z"/>
	</g>
	<g>
		<path class="st0" d="M14.13,33.27c0,3.52,2.02,5.37,5.54,5.37h20.7c2.88,0,5.5-2.62,5.5-5.37V11.24c0-0.43-0.17-0.82-0.43-1.12
			l-7.39-8.46c-0.34-0.39-0.82-0.6-1.33-0.6H19.63c-2.86,0-5.5,2.51-5.5,5.2C14.13,8.04,14.13,33.27,14.13,33.27z M36.2,3.81
			L36.2,3.81l6.91,7.99l0,0h-4.47c-1.33,0-2.45-1.07-2.45-2.36V3.81z M43.12,33.27c0,1.37-1.33,2.66-2.75,2.66H19.63
			c-1.46,0-2.75-1.33-2.75-2.66V6.43c0-1.37,1.33-2.66,2.75-2.66h13.78l0,0V10c0,2.49,2.06,4.51,4.64,4.51h5.02l0,0v18.76H43.12z"/>
		<path class="st0" d="M37.49,19.87H22.55c-0.73,0-1.37,0.56-1.42,1.29c-0.04,0.77,0.6,1.37,1.37,1.37h14.94
			c0.73,0,1.37-0.56,1.42-1.29C38.91,20.52,38.27,19.87,37.49,19.87z"/>
		<path class="st0" d="M28.48,12.27h-5.93c-0.73,0-1.37,0.56-1.42,1.29c-0.04,0.77,0.6,1.37,1.37,1.37h5.93
			c0.73,0,1.37-0.56,1.42-1.29C29.89,12.92,29.25,12.27,28.48,12.27z"/>
		<path class="st0" d="M37.49,26.57H22.55c-0.73,0-1.37,0.56-1.42,1.29c-0.04,0.77,0.6,1.37,1.37,1.37h14.94
			c0.73,0,1.37-0.56,1.42-1.29S38.27,26.57,37.49,26.57z"/>
	</g>
</g>
</svg>
